<svg id="visual" viewBox="0 0 900 600" width="900" height="600" xmlns="http://www.w3.org/2000/svg" xmlns:xlink="http://www.w3.org/1999/xlink" version="1.1"><path d="M0 0L6.5 7.2C13 14.3 26 28.7 39 34.8C52 41 65 39 78 39C91 39 104 41 117.2 45C130.3 49 143.7 55 156.8 59C170 63 183 65 196 58C209 51 222 35 235 29C248 23 261 27 274 36C287 45 300 59 313 67C326 75 339 77 352 77C365 77 378 75 391 67C404 59 417 45 430.2 44C443.3 43 456.7 55 469.8 51C483 47 496 27 509 17C522 7 535 7 548 16C561 25 574 43 587 47C600 51 613 41 626 42C639 43 652 55 665 49.8C678 44.7 691 22.3 704 14.3C717 6.3 730 12.7 743.2 25.8C756.3 39 769.7 59 782.8 58C796 57 809 35 822 32C835 29 848 45 861 52C874 59 887 57 893.5 56L900 55L900 0L893.5 0C887 0 874 0 861 0C848 0 835 0 822 0C809 0 796 0 782.8 0C769.7 0 756.3 0 743.2 0C730 0 717 0 704 0C691 0 678 0 665 0C652 0 639 0 626 0C613 0 600 0 587 0C574 0 561 0 548 0C535 0 522 0 509 0C496 0 483 0 469.8 0C456.7 0 443.3 0 430.2 0C417 0 404 0 391 0C378 0 365 0 352 0C339 0 326 0 313 0C300 0 287 0 274 0C261 0 248 0 235 0C222 0 209 0 196 0C183 0 170 0 156.8 0C143.7 0 130.3 0 117.2 0C104 0 91 0 78 0C65 0 52 0 39 0C26 0 13 0 6.5 0L0 0Z" fill="#eae390"></path><path d="M0 25L6.5 29C13 33 26 41 39 50C52 59 65 69 78 72C91 75 104 71 117.2 75C130.3 79 143.7 91 156.8 102C170 113 183 123 196 116C209 109 222 85 235 74C248 63 261 65 274 72C287 79 300 91 313 102C326 113 339 123 352 126C365 129 378 125 391 111C404 97 417 73 430.2 64C443.3 55 456.7 61 469.8 58C483 55 496 43 509 39C522 35 535 39 548 54C561 69 574 95 587 94C600 93 613 65 626 63C639 61 652 85 665 81C678 77 691 45 704 39C717 33 730 53 743.2 69C756.3 85 769.7 97 782.8 89C796 81 809 53 822 56C835 59 848 93 861 104C874 115 887 103 893.5 97L900 91L900 53L893.5 54C887 55 874 57 861 50C848 43 835 27 822 30C809 33 796 55 782.8 56C769.7 57 756.3 37 743.2 24.2C730 11.3 717 5.7 704 13.7C691 21.7 678 43.3 665 48.2C652 53 639 41 626 40C613 39 600 49 587 45C574 41 561 23 548 14C535 5 522 5 509 15C496 25 483 45 469.8 49C456.7 53 443.3 41 430.2 42C417 43 404 57 391 65C378 73 365 75 352 75C339 75 326 73 313 65C300 57 287 43 274 34C261 25 248 21 235 27C222 33 209 49 196 56C183 63 170 61 156.8 57C143.7 53 130.3 47 117.2 43C104 39 91 37 78 37C65 37 52 39 39 33.2C26 27.3 13 13.7 6.5 6.8L0 0Z" fill="#e8e187"></path><path d="M0 55L6.5 57C13 59 26 63 39 83C52 103 65 139 78 159C91 179 104 183 117.2 186C130.3 189 143.7 191 156.8 199C170 207 183 221 196 216C209 211 222 187 235 164C248 141 261 119 274 134C287 149 300 201 313 221C326 241 339 229 352 228C365 227 378 237 391 209C404 181 417 115 430.2 99C443.3 83 456.7 117 469.8 140C483 163 496 175 509 165C522 155 535 123 548 121C561 119 574 147 587 152C600 157 613 139 626 148C639 157 652 193 665 184C678 175 691 121 704 118C717 115 730 163 743.2 182C756.3 201 769.7 191 782.8 171C796 151 809 121 822 133C835 145 848 199 861 215C874 231 887 209 893.5 198L900 187L900 89L893.5 95C887 101 874 113 861 102C848 91 835 57 822 54C809 51 796 79 782.8 87C769.7 95 756.3 83 743.2 67C730 51 717 31 704 37C691 43 678 75 665 79C652 83 639 59 626 61C613 63 600 91 587 92C574 93 561 67 548 52C535 37 522 33 509 37C496 41 483 53 469.8 56C456.7 59 443.3 53 430.2 62C417 71 404 95 391 109C378 123 365 127 352 124C339 121 326 111 313 100C300 89 287 77 274 70C261 63 248 61 235 72C222 83 209 107 196 114C183 121 170 111 156.8 100C143.7 89 130.3 77 117.2 73C104 69 91 73 78 70C65 67 52 57 39 48C26 39 13 31 6.5 27L0 23Z" fill="#e6de7e"></path><path d="M0 193L6.5 186C13 179 26 165 39 173C52 181 65 211 78 229C91 247 104 253 117.2 259C130.3 265 143.7 271 156.8 291C170 311 183 345 196 347C209 349 222 319 235 291C248 263 261 237 274 233C287 229 300 247 313 274C326 301 339 337 352 355C365 373 378 373 391 340C404 307 417 241 430.2 214C443.3 187 456.7 199 469.8 213C483 227 496 243 509 254C522 265 535 271 548 271C561 271 574 265 587 243C600 221 613 183 626 183C639 183 652 221 665 263C678 305 691 351 704 353C717 355 730 313 743.2 302C756.3 291 769.7 311 782.8 317C796 323 809 315 822 314C835 313 848 319 861 312C874 305 887 285 893.5 275L900 265L900 185L893.5 196C887 207 874 229 861 213C848 197 835 143 822 131C809 119 796 149 782.8 169C769.7 189 756.3 199 743.2 180C730 161 717 113 704 116C691 119 678 173 665 182C652 191 639 155 626 146C613 137 600 155 587 150C574 145 561 117 548 119C535 121 522 153 509 163C496 173 483 161 469.8 138C456.7 115 443.3 81 430.2 97C417 113 404 179 391 207C378 235 365 225 352 226C339 227 326 239 313 219C300 199 287 147 274 132C261 117 248 139 235 162C222 185 209 209 196 214C183 219 170 205 156.8 197C143.7 189 130.3 187 117.2 184C104 181 91 177 78 157C65 137 52 101 39 81C26 61 13 57 6.5 55L0 53Z" fill="#e4dc74"></path><path d="M0 211L6.5 206C13 201 26 191 39 196C52 201 65 221 78 234C91 247 104 253 117.2 265C130.3 277 143.7 295 156.8 323C170 351 183 389 196 389C209 389 222 351 235 322C248 293 261 273 274 269C287 265 300 277 313 303C326 329 339 369 352 387C365 405 378 401 391 366C404 331 417 265 430.2 240C443.3 215 456.7 231 469.8 247C483 263 496 279 509 287C522 295 535 295 548 293C561 291 574 287 587 270C600 253 613 223 626 221C639 219 652 245 665 283C678 321 691 371 704 372C717 373 730 325 743.2 313C756.3 301 769.7 325 782.8 334C796 343 809 337 822 336C835 335 848 339 861 334C874 329 887 315 893.5 308L900 301L900 263L893.5 273C887 283 874 303 861 310C848 317 835 311 822 312C809 313 796 321 782.8 315C769.7 309 756.3 289 743.2 300C730 311 717 353 704 351C691 349 678 303 665 261C652 219 639 181 626 181C613 181 600 219 587 241C574 263 561 269 548 269C535 269 522 263 509 252C496 241 483 225 469.8 211C456.7 197 443.3 185 430.2 212C417 239 404 305 391 338C378 371 365 371 352 353C339 335 326 299 313 272C300 245 287 227 274 231C261 235 248 261 235 289C222 317 209 347 196 345C183 343 170 309 156.8 289C143.7 269 130.3 263 117.2 257C104 251 91 245 78 227C65 209 52 179 39 171C26 163 13 177 6.5 184L0 191Z" fill="#e1da6b"></path><path d="M0 277L6.5 268C13 259 26 241 39 244C52 247 65 271 78 281C91 291 104 287 117.2 299C130.3 311 143.7 339 156.8 374C170 409 183 451 196 447C209 443 222 393 235 355C248 317 261 291 274 283C287 275 300 285 313 315C326 345 339 395 352 413C365 431 378 417 391 385C404 353 417 303 430.2 280C443.3 257 456.7 261 469.8 269C483 277 496 289 509 301C522 313 535 325 548 328C561 331 574 325 587 312C600 299 613 279 626 278C639 277 652 295 665 324C678 353 691 393 704 390C717 387 730 341 743.2 331C756.3 321 769.7 347 782.8 356C796 365 809 357 822 358C835 359 848 369 861 368C874 367 887 355 893.5 349L900 343L900 299L893.5 306C887 313 874 327 861 332C848 337 835 333 822 334C809 335 796 341 782.8 332C769.7 323 756.3 299 743.2 311C730 323 717 371 704 370C691 369 678 319 665 281C652 243 639 217 626 219C613 221 600 251 587 268C574 285 561 289 548 291C535 293 522 293 509 285C496 277 483 261 469.8 245C456.7 229 443.3 213 430.2 238C417 263 404 329 391 364C378 399 365 403 352 385C339 367 326 327 313 301C300 275 287 263 274 267C261 271 248 291 235 320C222 349 209 387 196 387C183 387 170 349 156.8 321C143.7 293 130.3 275 117.2 263C104 251 91 245 78 232C65 219 52 199 39 194C26 189 13 199 6.5 204L0 209Z" fill="#dfd761"></path><path d="M0 295L6.5 290C13 285 26 275 39 279C52 283 65 301 78 307C91 313 104 307 117.2 315C130.3 323 143.7 345 156.8 377C170 409 183 451 196 452C209 453 222 413 235 380C248 347 261 321 274 311C287 301 300 307 313 335C326 363 339 413 352 432C365 451 378 439 391 412C404 385 417 343 430.2 323C443.3 303 456.7 305 469.8 314C483 323 496 339 509 349C522 359 535 363 548 363C561 363 574 359 587 349C600 339 613 323 626 321C639 319 652 331 665 354C678 377 691 411 704 407C717 403 730 361 743.2 358C756.3 355 769.7 391 782.8 396C796 401 809 375 822 371C835 367 848 385 861 385C874 385 887 367 893.5 358L900 349L900 341L893.5 347C887 353 874 365 861 366C848 367 835 357 822 356C809 355 796 363 782.8 354C769.7 345 756.3 319 743.2 329C730 339 717 385 704 388C691 391 678 351 665 322C652 293 639 275 626 276C613 277 600 297 587 310C574 323 561 329 548 326C535 323 522 311 509 299C496 287 483 275 469.8 267C456.7 259 443.3 255 430.2 278C417 301 404 351 391 383C378 415 365 429 352 411C339 393 326 343 313 313C300 283 287 273 274 281C261 289 248 315 235 353C222 391 209 441 196 445C183 449 170 407 156.8 372C143.7 337 130.3 309 117.2 297C104 285 91 289 78 279C65 269 52 245 39 242C26 239 13 257 6.5 266L0 275Z" fill="#d9d159"></path><path d="M0 349L6.5 339C13 329 26 309 39 305C52 301 65 313 78 334C91 355 104 385 117.2 409C130.3 433 143.7 451 156.8 466C170 481 183 493 196 491C209 489 222 473 235 438C248 403 261 349 274 329C287 309 300 323 313 361C326 399 339 461 352 478C365 495 378 467 391 444C404 421 417 403 430.2 390C443.3 377 456.7 369 469.8 375C483 381 496 401 509 412C522 423 535 425 548 416C561 407 574 387 587 367C600 347 613 327 626 327C639 327 652 347 665 377C678 407 691 447 704 442C717 437 730 387 743.2 391C756.3 395 769.7 453 782.8 468C796 483 809 455 822 442C835 429 848 431 861 428C874 425 887 417 893.5 413L900 409L900 347L893.5 356C887 365 874 383 861 383C848 383 835 365 822 369C809 373 796 399 782.8 394C769.7 389 756.3 353 743.2 356C730 359 717 401 704 405C691 409 678 375 665 352C652 329 639 317 626 319C613 321 600 337 587 347C574 357 561 361 548 361C535 361 522 357 509 347C496 337 483 321 469.8 312C456.7 303 443.3 301 430.2 321C417 341 404 383 391 410C378 437 365 449 352 430C339 411 326 361 313 333C300 305 287 299 274 309C261 319 248 345 235 378C222 411 209 451 196 450C183 449 170 407 156.8 375C143.7 343 130.3 321 117.2 313C104 305 91 311 78 305C65 299 52 281 39 277C26 273 13 283 6.5 288L0 293Z" fill="#cec754"></path><path d="M0 475L6.5 474C13 473 26 471 39 475C52 479 65 489 78 491C91 493 104 487 117.2 491C130.3 495 143.7 509 156.8 520C170 531 183 539 196 540C209 541 222 535 235 527C248 519 261 509 274 503C287 497 300 495 313 502C326 509 339 525 352 523C365 521 378 501 391 501C404 501 417 521 430.2 529C443.3 537 456.7 533 469.8 531C483 529 496 529 509 524C522 519 535 509 548 504C561 499 574 499 587 500C600 501 613 503 626 499C639 495 652 485 665 482C678 479 691 483 704 489C717 495 730 503 743.2 509C756.3 515 769.7 519 782.8 516C796 513 809 503 822 503C835 503 848 513 861 515C874 517 887 511 893.5 508L900 505L900 407L893.5 411C887 415 874 423 861 426C848 429 835 427 822 440C809 453 796 481 782.8 466C769.7 451 756.3 393 743.2 389C730 385 717 435 704 440C691 445 678 405 665 375C652 345 639 325 626 325C613 325 600 345 587 365C574 385 561 405 548 414C535 423 522 421 509 410C496 399 483 379 469.8 373C456.7 367 443.3 375 430.2 388C417 401 404 419 391 442C378 465 365 493 352 476C339 459 326 397 313 359C300 321 287 307 274 327C261 347 248 401 235 436C222 471 209 487 196 489C183 491 170 479 156.8 464C143.7 449 130.3 431 117.2 407C104 383 91 353 78 332C65 311 52 299 39 303C26 307 13 327 6.5 337L0 347Z" fill="#c4bd4f"></path><path d="M0 517L6.5 512C13 507 26 497 39 499C52 501 65 515 78 516C91 517 104 505 117.2 504C130.3 503 143.7 513 156.8 526C170 539 183 555 196 563C209 571 222 571 235 565C248 559 261 547 274 538C287 529 300 523 313 529C326 535 339 553 352 553C365 553 378 535 391 532C404 529 417 541 430.2 544C443.3 547 456.7 541 469.8 541C483 541 496 547 509 542C522 537 535 521 548 519C561 517 574 529 587 532C600 535 613 529 626 520C639 511 652 499 665 497C678 495 691 503 704 510C717 517 730 523 743.2 533C756.3 543 769.7 557 782.8 559C796 561 809 551 822 546C835 541 848 541 861 543C874 545 887 549 893.5 551L900 553L900 503L893.5 506C887 509 874 515 861 513C848 511 835 501 822 501C809 501 796 511 782.8 514C769.7 517 756.3 513 743.2 507C730 501 717 493 704 487C691 481 678 477 665 480C652 483 639 493 626 497C613 501 600 499 587 498C574 497 561 497 548 502C535 507 522 517 509 522C496 527 483 527 469.8 529C456.7 531 443.3 535 430.2 527C417 519 404 499 391 499C378 499 365 519 352 521C339 523 326 507 313 500C300 493 287 495 274 501C261 507 248 517 235 525C222 533 209 539 196 538C183 537 170 529 156.8 518C143.7 507 130.3 493 117.2 489C104 485 91 491 78 489C65 487 52 477 39 473C26 469 13 471 6.5 472L0 473Z" fill="#bab34a"></path><path d="M0 565L6.5 558C13 551 26 537 39 538C52 539 65 555 78 552C91 549 104 527 117.2 527C130.3 527 143.7 549 156.8 564C170 579 183 587 196 589C209 591 222 587 235 581C248 575 261 567 274 565C287 563 300 567 313 570C326 573 339 575 352 567C365 559 378 541 391 540C404 539 417 555 430.2 563C443.3 571 456.7 571 469.8 575C483 579 496 587 509 583C522 579 535 563 548 556C561 549 574 551 587 551C600 551 613 549 626 544C639 539 652 531 665 529C678 527 691 531 704 541C717 551 730 567 743.2 575C756.3 583 769.7 583 782.8 578C796 573 809 563 822 562C835 561 848 569 861 574C874 579 887 581 893.5 582L900 583L900 551L893.5 549C887 547 874 543 861 541C848 539 835 539 822 544C809 549 796 559 782.8 557C769.7 555 756.3 541 743.2 531C730 521 717 515 704 508C691 501 678 493 665 495C652 497 639 509 626 518C613 527 600 533 587 530C574 527 561 515 548 517C535 519 522 535 509 540C496 545 483 539 469.8 539C456.7 539 443.3 545 430.2 542C417 539 404 527 391 530C378 533 365 551 352 551C339 551 326 533 313 527C300 521 287 527 274 536C261 545 248 557 235 563C222 569 209 569 196 561C183 553 170 537 156.8 524C143.7 511 130.3 501 117.2 502C104 503 91 515 78 514C65 513 52 499 39 497C26 495 13 505 6.5 510L0 515Z" fill="#b0aa45"></path><path d="M0 601L6.5 601C13 601 26 601 39 601C52 601 65 601 78 601C91 601 104 601 117.2 601C130.3 601 143.7 601 156.8 601C170 601 183 601 196 601C209 601 222 601 235 601C248 601 261 601 274 601C287 601 300 601 313 601C326 601 339 601 352 601C365 601 378 601 391 601C404 601 417 601 430.2 601C443.3 601 456.7 601 469.8 601C483 601 496 601 509 601C522 601 535 601 548 601C561 601 574 601 587 601C600 601 613 601 626 601C639 601 652 601 665 601C678 601 691 601 704 601C717 601 730 601 743.2 601C756.3 601 769.7 601 782.8 601C796 601 809 601 822 601C835 601 848 601 861 601C874 601 887 601 893.5 601L900 601L900 581L893.5 580C887 579 874 577 861 572C848 567 835 559 822 560C809 561 796 571 782.8 576C769.7 581 756.3 581 743.2 573C730 565 717 549 704 539C691 529 678 525 665 527C652 529 639 537 626 542C613 547 600 549 587 549C574 549 561 547 548 554C535 561 522 577 509 581C496 585 483 577 469.8 573C456.7 569 443.3 569 430.2 561C417 553 404 537 391 538C378 539 365 557 352 565C339 573 326 571 313 568C300 565 287 561 274 563C261 565 248 573 235 579C222 585 209 589 196 587C183 585 170 577 156.8 562C143.7 547 130.3 525 117.2 525C104 525 91 547 78 550C65 553 52 537 39 536C26 535 13 549 6.5 556L0 563Z" fill="#a6a040"></path></svg>