<svg id="visual" viewBox="0 0 1920 1080" width="1920" height="1080" xmlns="http://www.w3.org/2000/svg" xmlns:xlink="http://www.w3.org/1999/xlink" version="1.1"><path d="M0 44L53.3 107C106.7 170 213.3 296 320 371.7C426.7 447.3 533.3 472.7 640 415.2C746.7 357.7 853.3 217.3 960 183.2C1066.7 149 1173.3 221 1280 235.3C1386.7 249.7 1493.3 206.3 1600 208C1706.7 209.7 1813.3 256.3 1866.7 279.7L1920 303L1920 0L1866.7 0C1813.3 0 1706.7 0 1600 0C1493.3 0 1386.7 0 1280 0C1173.3 0 1066.7 0 960 0C853.3 0 746.7 0 640 0C533.3 0 426.7 0 320 0C213.3 0 106.7 0 53.3 0L0 0Z" fill="#5d4134"></path><path d="M0 163L53.3 231.3C106.7 299.7 213.3 436.3 320 495.7C426.7 555 533.3 537 640 457.8C746.7 378.7 853.3 238.3 960 202.3C1066.7 166.3 1173.3 234.7 1280 283.3C1386.7 332 1493.3 361 1600 364.7C1706.7 368.3 1813.3 346.7 1866.7 335.8L1920 325L1920 301L1866.7 277.7C1813.3 254.3 1706.7 207.7 1600 206C1493.3 204.3 1386.7 247.7 1280 233.3C1173.3 219 1066.7 147 960 181.2C853.3 215.3 746.7 355.7 640 413.2C533.3 470.7 426.7 445.3 320 369.7C213.3 294 106.7 168 53.3 105L0 42Z" fill="#6a4a3b"></path><path d="M0 357L53.3 420C106.7 483 213.3 609 320 643.3C426.7 677.7 533.3 620.3 640 535.8C746.7 451.3 853.3 339.7 960 309C1066.7 278.3 1173.3 328.7 1280 366.5C1386.7 404.3 1493.3 429.7 1600 436.8C1706.7 444 1813.3 433 1866.7 427.5L1920 422L1920 323L1866.7 333.8C1813.3 344.7 1706.7 366.3 1600 362.7C1493.3 359 1386.7 330 1280 281.3C1173.3 232.7 1066.7 164.3 960 200.3C853.3 236.3 746.7 376.7 640 455.8C533.3 535 426.7 553 320 493.7C213.3 434.3 106.7 297.7 53.3 229.3L0 161Z" fill="#785342"></path><path d="M0 595L53.3 638.2C106.7 681.3 213.3 767.7 320 776.7C426.7 785.7 533.3 717.3 640 632.8C746.7 548.3 853.3 447.7 960 431.5C1066.7 415.3 1173.3 483.7 1280 528.7C1386.7 573.7 1493.3 595.3 1600 625.8C1706.7 656.3 1813.3 695.7 1866.7 715.3L1920 735L1920 420L1866.7 425.5C1813.3 431 1706.7 442 1600 434.8C1493.3 427.7 1386.7 402.3 1280 364.5C1173.3 326.7 1066.7 276.3 960 307C853.3 337.7 746.7 449.3 640 533.8C533.3 618.3 426.7 675.7 320 641.3C213.3 607 106.7 481 53.3 418L0 355Z" fill="#86604e"></path><path d="M0 1027L53.3 1036C106.7 1045 213.3 1063 320 1019.8C426.7 976.7 533.3 872.3 640 832.7C746.7 793 853.3 818 960 819.8C1066.7 821.7 1173.3 800.3 1280 802.2C1386.7 804 1493.3 829 1600 843.3C1706.7 857.7 1813.3 861.3 1866.7 863.2L1920 865L1920 733L1866.7 713.3C1813.3 693.7 1706.7 654.3 1600 623.8C1493.3 593.3 1386.7 571.7 1280 526.7C1173.3 481.7 1066.7 413.3 960 429.5C853.3 445.7 746.7 546.3 640 630.8C533.3 715.3 426.7 783.7 320 774.7C213.3 765.7 106.7 679.3 53.3 636.2L0 593Z" fill="#936f5e"></path><path d="M0 1081L53.3 1081C106.7 1081 213.3 1081 320 1081C426.7 1081 533.3 1081 640 1081C746.7 1081 853.3 1081 960 1081C1066.7 1081 1173.3 1081 1280 1081C1386.7 1081 1493.3 1081 1600 1081C1706.7 1081 1813.3 1081 1866.7 1081L1920 1081L1920 863L1866.7 861.2C1813.3 859.3 1706.7 855.7 1600 841.3C1493.3 827 1386.7 802 1280 800.2C1173.3 798.3 1066.7 819.7 960 817.8C853.3 816 746.7 791 640 830.7C533.3 870.3 426.7 974.7 320 1017.8C213.3 1061 106.7 1043 53.3 1034L0 1025Z" fill="#a07f6f"></path></svg>