<svg id="visual" viewBox="0 0 1920 1080" width="1920" height="1080" xmlns="http://www.w3.org/2000/svg" xmlns:xlink="http://www.w3.org/1999/xlink" version="1.1"><path d="M1861 1080L1854.7 1054.3C1848.3 1028.7 1835.7 977.3 1832.5 925.8C1829.3 874.3 1835.7 822.7 1838.8 771.2C1842 719.7 1842 668.3 1845.2 617C1848.3 565.7 1854.7 514.3 1841.8 463C1829 411.7 1797 360.3 1784.3 308.8C1771.7 257.3 1778.3 205.7 1791.2 154.2C1804 102.7 1823 51.3 1832.5 25.7L1842 0L1920 0L1920 25.7C1920 51.3 1920 102.7 1920 154.2C1920 205.7 1920 257.3 1920 308.8C1920 360.3 1920 411.7 1920 463C1920 514.3 1920 565.7 1920 617C1920 668.3 1920 719.7 1920 771.2C1920 822.7 1920 874.3 1920 925.8C1920 977.3 1920 1028.7 1920 1054.3L1920 1080Z" fill="#cc9aff"></path><path d="M1746 1080L1742.8 1054.3C1739.7 1028.7 1733.3 977.3 1720.5 925.8C1707.7 874.3 1688.3 822.7 1685.2 771.2C1682 719.7 1695 668.3 1711 617C1727 565.7 1746 514.3 1733.2 463C1720.3 411.7 1675.7 360.3 1663 308.8C1650.3 257.3 1669.7 205.7 1685.7 154.2C1701.7 102.7 1714.3 51.3 1720.7 25.7L1727 0L1843 0L1833.5 25.7C1824 51.3 1805 102.7 1792.2 154.2C1779.3 205.7 1772.7 257.3 1785.3 308.8C1798 360.3 1830 411.7 1842.8 463C1855.7 514.3 1849.3 565.7 1846.2 617C1843 668.3 1843 719.7 1839.8 771.2C1836.7 822.7 1830.3 874.3 1833.5 925.8C1836.7 977.3 1849.3 1028.7 1855.7 1054.3L1862 1080Z" fill="#c891ff"></path><path d="M1631 1080L1631 1054.3C1631 1028.7 1631 977.3 1621.3 925.8C1611.7 874.3 1592.3 822.7 1586 771.2C1579.7 719.7 1586.3 668.3 1608.8 617C1631.3 565.7 1669.7 514.3 1663.2 463C1656.7 411.7 1605.3 360.3 1589.3 308.8C1573.3 257.3 1592.7 205.7 1602.3 154.2C1612 102.7 1612 51.3 1612 25.7L1612 0L1728 0L1721.7 25.7C1715.3 51.3 1702.7 102.7 1686.7 154.2C1670.7 205.7 1651.3 257.3 1664 308.8C1676.7 360.3 1721.3 411.7 1734.2 463C1747 514.3 1728 565.7 1712 617C1696 668.3 1683 719.7 1686.2 771.2C1689.3 822.7 1708.7 874.3 1721.5 925.8C1734.3 977.3 1740.7 1028.7 1743.8 1054.3L1747 1080Z" fill="#c389ff"></path><path d="M1343 1080L1339.8 1054.3C1336.7 1028.7 1330.3 977.3 1320.7 925.8C1311 874.3 1298 822.7 1301.2 771.2C1304.3 719.7 1323.7 668.3 1327 617C1330.3 565.7 1317.7 514.3 1263.3 463C1209 411.7 1113 360.3 1093.7 308.8C1074.3 257.3 1131.7 205.7 1166.8 154.2C1202 102.7 1215 51.3 1221.5 25.7L1228 0L1613 0L1613 25.7C1613 51.3 1613 102.7 1603.3 154.2C1593.7 205.7 1574.3 257.3 1590.3 308.8C1606.3 360.3 1657.7 411.7 1664.2 463C1670.7 514.3 1632.3 565.7 1609.8 617C1587.3 668.3 1580.7 719.7 1587 771.2C1593.3 822.7 1612.7 874.3 1622.3 925.8C1632 977.3 1632 1028.7 1632 1054.3L1632 1080Z" fill="#be80ff"></path><path d="M1266 1080L1269.2 1054.3C1272.3 1028.7 1278.7 977.3 1265.8 925.8C1253 874.3 1221 822.7 1221 771.2C1221 719.7 1253 668.3 1256.3 617C1259.7 565.7 1234.3 514.3 1173.7 463C1113 411.7 1017 360.3 1007.3 308.8C997.7 257.3 1074.3 205.7 1109.5 154.2C1144.7 102.7 1138.3 51.3 1135.2 25.7L1132 0L1229 0L1222.5 25.7C1216 51.3 1203 102.7 1167.8 154.2C1132.7 205.7 1075.3 257.3 1094.7 308.8C1114 360.3 1210 411.7 1264.3 463C1318.7 514.3 1331.3 565.7 1328 617C1324.7 668.3 1305.3 719.7 1302.2 771.2C1299 822.7 1312 874.3 1321.7 925.8C1331.3 977.3 1337.7 1028.7 1340.8 1054.3L1344 1080Z" fill="#b977ff"></path><path d="M1189 1080L1176.3 1054.3C1163.7 1028.7 1138.3 977.3 1112.8 925.8C1087.3 874.3 1061.7 822.7 1068 771.2C1074.3 719.7 1112.7 668.3 1122.2 617C1131.7 565.7 1112.3 514.3 1054.7 463C997 411.7 901 360.3 894.7 308.8C888.3 257.3 971.7 205.7 997.3 154.2C1023 102.7 991 51.3 975 25.7L959 0L1133 0L1136.2 25.7C1139.3 51.3 1145.7 102.7 1110.5 154.2C1075.3 205.7 998.7 257.3 1008.3 308.8C1018 360.3 1114 411.7 1174.7 463C1235.3 514.3 1260.7 565.7 1257.3 617C1254 668.3 1222 719.7 1222 771.2C1222 822.7 1254 874.3 1266.8 925.8C1279.7 977.3 1273.3 1028.7 1270.2 1054.3L1267 1080Z" fill="#b56fff"></path><path d="M940 1080L933.5 1054.3C927 1028.7 914 977.3 894.8 925.8C875.7 874.3 850.3 822.7 856.8 771.2C863.3 719.7 901.7 668.3 920.8 617C940 565.7 940 514.3 895.2 463C850.3 411.7 760.7 360.3 744.7 308.8C728.7 257.3 786.3 205.7 796 154.2C805.7 102.7 767.3 51.3 748.2 25.7L729 0L960 0L976 25.7C992 51.3 1024 102.7 998.3 154.2C972.7 205.7 889.3 257.3 895.7 308.8C902 360.3 998 411.7 1055.7 463C1113.3 514.3 1132.7 565.7 1123.2 617C1113.7 668.3 1075.3 719.7 1069 771.2C1062.7 822.7 1088.3 874.3 1113.8 925.8C1139.3 977.3 1164.7 1028.7 1177.3 1054.3L1190 1080Z" fill="#af67fd"></path><path d="M402 1080L430.8 1054.3C459.7 1028.7 517.3 977.3 520.5 925.8C523.7 874.3 472.3 822.7 459.5 771.2C446.7 719.7 472.3 668.3 482 617C491.7 565.7 485.3 514.3 463 463C440.7 411.7 402.3 360.3 418.3 308.8C434.3 257.3 504.7 205.7 520.7 154.2C536.7 102.7 498.3 51.3 479.2 25.7L460 0L730 0L749.2 25.7C768.3 51.3 806.7 102.7 797 154.2C787.3 205.7 729.7 257.3 745.7 308.8C761.7 360.3 851.3 411.7 896.2 463C941 514.3 941 565.7 921.8 617C902.7 668.3 864.3 719.7 857.8 771.2C851.3 822.7 876.7 874.3 895.8 925.8C915 977.3 928 1028.7 934.5 1054.3L941 1080Z" fill="#aa62f8"></path><path d="M268 1080L300 1054.3C332 1028.7 396 977.3 412 925.8C428 874.3 396 822.7 380 771.2C364 719.7 364 668.3 360.8 617C357.7 565.7 351.3 514.3 341.7 463C332 411.7 319 360.3 338.2 308.8C357.3 257.3 408.7 205.7 424.7 154.2C440.7 102.7 421.3 51.3 411.7 25.7L402 0L461 0L480.2 25.7C499.3 51.3 537.7 102.7 521.7 154.2C505.7 205.7 435.3 257.3 419.3 308.8C403.3 360.3 441.7 411.7 464 463C486.3 514.3 492.7 565.7 483 617C473.3 668.3 447.7 719.7 460.5 771.2C473.3 822.7 524.7 874.3 521.5 925.8C518.3 977.3 460.7 1028.7 431.8 1054.3L403 1080Z" fill="#a45cf4"></path><path d="M210 1080L238.8 1054.3C267.7 1028.7 325.3 977.3 331.8 925.8C338.3 874.3 293.7 822.7 280.8 771.2C268 719.7 287 668.3 283.7 617C280.3 565.7 254.7 514.3 241.8 463C229 411.7 229 360.3 251.5 308.8C274 257.3 319 205.7 328.7 154.2C338.3 102.7 312.7 51.3 299.8 25.7L287 0L403 0L412.7 25.7C422.3 51.3 441.7 102.7 425.7 154.2C409.7 205.7 358.3 257.3 339.2 308.8C320 360.3 333 411.7 342.7 463C352.3 514.3 358.7 565.7 361.8 617C365 668.3 365 719.7 381 771.2C397 822.7 429 874.3 413 925.8C397 977.3 333 1028.7 301 1054.3L269 1080Z" fill="#9f57ef"></path><path d="M172 1080L194.3 1054.3C216.7 1028.7 261.3 977.3 258.2 925.8C255 874.3 204 822.7 197.7 771.2C191.3 719.7 229.7 668.3 229.7 617C229.7 565.7 191.3 514.3 175.3 463C159.3 411.7 165.7 360.3 188 308.8C210.3 257.3 248.7 205.7 261.5 154.2C274.3 102.7 261.7 51.3 255.3 25.7L249 0L288 0L300.8 25.7C313.7 51.3 339.3 102.7 329.7 154.2C320 205.7 275 257.3 252.5 308.8C230 360.3 230 411.7 242.8 463C255.7 514.3 281.3 565.7 284.7 617C288 668.3 269 719.7 281.8 771.2C294.7 822.7 339.3 874.3 332.8 925.8C326.3 977.3 268.7 1028.7 239.8 1054.3L211 1080Z" fill="#9951eb"></path><path d="M0 1080L0 1054.3C0 1028.7 0 977.3 0 925.8C0 874.3 0 822.7 0 771.2C0 719.7 0 668.3 0 617C0 565.7 0 514.3 0 463C0 411.7 0 360.3 0 308.8C0 257.3 0 205.7 0 154.2C0 102.7 0 51.3 0 25.7L0 0L250 0L256.3 25.7C262.7 51.3 275.3 102.7 262.5 154.2C249.7 205.7 211.3 257.3 189 308.8C166.7 360.3 160.3 411.7 176.3 463C192.3 514.3 230.7 565.7 230.7 617C230.7 668.3 192.3 719.7 198.7 771.2C205 822.7 256 874.3 259.2 925.8C262.3 977.3 217.7 1028.7 195.3 1054.3L173 1080Z" fill="#944ce6"></path></svg>